<?xml version="1.0" standalone="no"?>
<!DOCTYPE svg PUBLIC "-//W3C//DTD SVG 20010904//EN"
 "http://www.w3.org/TR/2001/REC-SVG-20010904/DTD/svg10.dtd">
<svg version="1.0" xmlns="http://www.w3.org/2000/svg"
 width="256.000000pt" height="256.000000pt" viewBox="0 0 256.000000 256.000000"
 preserveAspectRatio="xMidYMid meet">
<metadata>
Created by potrace 1.14, written by Peter Selinger 2001-2017
</metadata>
<g transform="translate(0.000000,256.000000) scale(0.100000,-0.100000)"
fill="#000000" stroke="none">
<path d="M1080 2334 c-121 -22 -228 -60 -329 -116 -231 -130 -444 -407 -502
-653 -6 -27 -18 -73 -26 -102 -22 -74 -14 -364 12 -448 81 -265 188 -423 406
-597 76 -61 265 -153 369 -179 165 -42 426 -34 576 16 296 99 472 246 656 545
26 43 77 191 94 275 19 92 22 271 5 385 -20 142 -72 273 -167 423 -61 95 -107
142 -239 242 -133 101 -217 147 -310 170 -38 10 -74 22 -80 25 -42 31 -327 39
-465 14z m261 -490 c8 -10 16 -48 19 -87 l5 -70 51 -17 c61 -19 97 -44 153
-105 73 -79 95 -156 108 -374 6 -106 8 -115 34 -142 35 -36 44 -64 29 -99 -8
-18 -21 -30 -40 -33 -33 -7 -651 0 -788 9 -86 5 -92 7 -98 29 -6 24 7 56 35
90 13 15 24 71 40 205 19 154 27 193 49 235 40 74 116 146 193 180 l67 30 4
67 c3 53 8 71 23 82 27 21 99 20 116 0z m63 -1025 c3 -3 3 -20 0 -37 -5 -23
-18 -38 -48 -56 -64 -38 -88 -40 -135 -17 -44 23 -66 49 -77 95 l-7 28 131 -3
c72 -2 133 -7 136 -10z"/>
</g>
</svg>
